<svg xmlns="http://www.w3.org/2000/svg" viewBox="250.42 152.53 771.58 498.4"><path fill="#e6edf3" d="M459.38 650.23c-2.35-1.55-2.38-4.89-.09-9.29 4.05-7.79 18.72-34.09 24.87-44.6 3.28-5.59 7.44-13.69 9.26-18 8.46-20.06 19.1-38.81 25.23-44.48 5.36-4.97 14.03-9.72 24.16-13.24 17.77-6.19 25.67-10.83 28.85-16.95 1.3-2.5 1.29-3.09-.06-5.16-1.97-3.01-7.71-4.89-12.42-4.06-2.02.36-7.86 2.02-12.96 3.69-8.76 2.87-9.43 2.96-11.75 1.43-3.58-2.35-3.27-6.11.7-8.53 2.9-1.76 13.21-5.25 28.15-9.52 8.48-2.43 11.36-5.84 8.37-9.93-3-4.1-17.39-2.35-28.89 3.51-7.03 3.59-13.37 1.93-12.63-3.29.43-3 10.33-7.99 26.03-13.11 14.78-4.82 18.89-8.63 13.27-12.31-4.24-2.78-13.92-1.39-28.47 4.1-14.45 5.46-17.27 5.4-17.82-.39-.26-2.68.34-4.06 3-6.86 5.45-5.74 17.54-15.02 25.7-19.73 4.21-2.43 8.98-5.8 10.59-7.48l2.94-3.07-2.23-2.23c-1.86-1.86-3.29-2.22-8.56-2.16-5.12.06-7.8.77-13.98 3.7-20.32 9.65-34.55 24.83-56.51 60.23-23.76 38.33-28.54 45.29-46.95 68.34-7.85 9.84-33.92 36.03-39.66 39.85-5.77 3.84-10.86 4.41-12.48 1.38-1.43-2.68-.5-4.48 3.89-7.52 7.58-5.25 38.97-39.34 52.04-56.51 6.58-8.65 20.18-28.91 24.51-36.54 4.81-8.47 22.33-34.08 29.6-43.28 3.79-4.79 6.9-9 6.9-9.35.01-.35-4.37-2.04-9.73-3.76-5.36-1.73-11.55-4.15-13.75-5.4-6.8-3.85-5.51-9.71 2.13-9.71 3.8 0 15.38 4 23.7 8.18l5.83 2.93 4.33-3.55c6.37-5.21 19.42-13.09 26.67-16.1 3.49-1.44 9.49-2.92 13.34-3.29l7-.67.11-3.5c.06-1.92-.44-5.08-1.11-7s-1.53-5.75-1.92-8.5-1.85-10.73-3.24-17.73c-2.48-12.55-2.49-12.79-.68-16.5 1.27-2.61 3.54-4.75 7.34-6.96 8.69-5.04 9.34-5.65 8.6-8-.37-1.16-3.84-4.74-7.72-7.96-8.47-7.02-16.12-16.83-18.98-24.35-1.15-3.02-2.93-10.19-3.96-15.93-1.96-10.96-6.7-22.51-13.05-31.72-16.72-24.31-55.14-36.2-87.02-26.92-25.33 7.37-43.87 21.56-53.31 40.8-6.36 12.93-8 19.89-8 33.77 0 12.47 1.46 19.35 6.53 30.74 3.98 8.94 18.42 34.69 23.42 41.77 6.25 8.84 7.79 14.06 7.81 26.49.03 18.99-5.56 34.02-16.71 44.97l-6.52 6.4 2.71 4.86c3.82 6.89 11.23 14.93 17.72 19.24 3.52 2.33 10.73 5.36 19.63 8.25 14.54 4.72 19.68 7.67 18.55 10.62-.92 2.41-3.19 2.11-17.95-2.33-22.86-6.88-32.19-13.14-41.97-28.16-2.81-4.32-5.5-7.85-5.98-7.85-.47 0-2.54.72-4.58 1.59-7.57 3.25-23.2 8.71-40.22 14.06-33.55 10.54-42.79 16.32-54.92 34.35-8.71 12.94-9.89 16.1-13.16 35.18-1.63 9.53-3.17 17.99-3.42 18.82-.24.83-.71 4.2-1.03 7.5-1.55 15.95-3.58 26.21-6.22 31.46-3.05 6.05-6.92 9.49-9.56 8.48-2.78-1.07-2.96-4.59-.79-15.06 1.12-5.43 2.53-14.38 3.12-19.88.6-5.5 1.72-13.46 2.5-17.68.78-4.23 2.14-13.65 3.03-20.95 1.9-15.55 2.84-18.24 10.71-30.87 8.59-13.79 12.5-18.6 19.24-23.66 8.92-6.69 26.38-14.79 37.5-17.38 34.55-8.07 40.06-9.94 51.89-17.59 12.01-7.77 15.55-11.47 19.08-19.95 4.41-10.59 6.03-17.84 6.03-26.97 0-10.87-1.76-16.1-8.32-24.72-7.22-9.48-15.6-23.4-19.64-32.62-8.82-20.15-10.96-42.98-5.68-60.61 1.49-4.95 5.03-13.73 7.87-19.5 4.36-8.87 6.42-11.74 13.22-18.5 9.98-9.91 19.4-16.37 31.41-21.55 13.02-5.61 25.5-8.57 39.14-9.3 12.02-.64 12.67-.54 31.03 4.67 13.52 3.83 21.16 8.58 22.52 14.02.35 1.38 4.54 6.48 9.32 11.34 11.74 11.91 18.43 24.78 22.05 42.38 2.6 12.67 11.59 26.94 22.97 36.47 8.52 7.14 10.11 9.56 10.11 15.44 0 5.01-3.12 8.75-10.33 12.4-8.49 4.3-9.17 5.38-7.35 11.81 2.95 10.44 7.81 37.1 7.55 41.37-.17 2.85.28 4.98 1.3 6.15 2.71 3.1 3.83 6.03 3.83 9.98-.01 6.93-4.48 11.91-16.5 18.37-3.3 1.77-6.31 3.5-6.7 3.83-.38.34 3.46.62 8.53.62 14.81 0 20.67 3.83 20.67 13.5 0 4.33-1.81 8.76-4.47 10.98-1.45 1.2-1.34 1.61 1.14 4.19 1.96 2.05 3.6 2.82 5.78 2.7 3.52-.19 34.08 15.49 42.77 21.94 10.79 8.01 21.88 20.88 30.76 35.69 10.26 17.11 14.66 26.81 20.4 45 6.9 21.84 8.93 31.91 7.69 38.28-1.23 6.34-2.37 8.61-5.3 10.67-5.54 3.88-10.77.53-10.77-6.91 0-13.71-9.19-53.04-15.52-66.4-8.26-17.44-27.14-40.82-41.45-51.35-3.42-2.52-28.01-15.79-29.25-15.79-.3 0-1.1 1.37-1.79 3.03-.7 1.67-2.38 3.92-3.74 4.99l-2.48 1.95 3.01 3.43c5.79 6.59 5.1 16.72-1.59 23.4-4.69 4.69-14.78 9.95-28.19 14.7-12.71 4.5-15.75 6.27-20.99 12.23-3.81 4.33-21.37 37.73-28.88 54.94-1.72 3.94-5.09 10.46-7.49 14.5-8.31 13.95-17.9 29.35-20.84 33.46-3.8 5.29-8.43 7.57-11.42 5.6m305.31-168.88c-1.42-1.41-.62-3.35 1.38-3.35 1.4 0 1.97.54 1.75 1.67-.35 1.84-2.06 2.76-3.13 1.68m52.77-.41c-1.13-1.83.46-5.78 2.59-6.46 3.81-1.21 6.59 3.48 3.75 6.32-1.48 1.48-5.45 1.57-6.34.14m68.87-13.56c-1.53-2.34-1.56-2.89-.24-5.25 1.79-3.2 6.82-4.08 9.28-1.61 2.15 2.15 2.05 3.67-.44 6.85-2.71 3.43-6.35 3.44-8.6.01m-33.95-16.82c-1.23-3.21.06-5.06 3.52-5.06 4.08 0 6.19 2.49 4.17 4.92-1.64 1.98-6.94 2.08-7.69.14m-209.74-4.79c-5.21-1.38-12.13-8.17-13.53-13.27-4.19-15.26 3.72-25.79 20.82-27.72 1.97-.23 4.08-3.04 11.08-14.78l8.64-14.5-4.97-4.5c-2.73-2.48-5.26-4.62-5.63-4.77-.65-.26-7.07 3.73-33.94 21.11-13.02 8.42-17.11 10.15-17.11 7.25 0-2.13 3.7-4.88 26.91-20.06l21.29-13.91-.59-3.56c-.32-1.96-.59-5.17-.6-7.15l-.01-3.59-14.75-5.84c-23.57-9.34-27.25-11.14-27.25-13.32 0-1.1.88-2.16 2.03-2.46 2.65-.69 14.48 2.69 23.95 6.85 4.14 1.81 9.82 4.2 12.63 5.3l5.1 2.01 2.08-3.68c2.79-4.93 8.7-10.45 14.28-13.32l4.57-2.36-3.17-16c-1.74-8.8-3.75-19.38-4.47-23.5l-1.31-7.5-5.09-.21c-7.76-.33-17.27-5.62-21.06-11.73-6.49-10.47-3.79-24.46 6.19-32.08 5.47-4.18 10.94-5.9 18.02-5.67 10.01.32 17.32 5.31 21.34 14.57 4.72 10.91 1.79 22.2-7.68 29.62-3.78 2.95-4.38 3.89-3.84 6 .35 1.38 2.38 11.05 4.53 21.5 2.14 10.45 4.1 19.92 4.36 21.04.39 1.67 1.8 2.27 7.73 3.29 7.94 1.36 14.55 4.67 17.56 8.8l1.93 2.65 17.91-12.76c16.04-11.44 17.88-13.04 17.65-15.4-.94-9.42-.59-12.76 1.8-17.08 7.16-12.95 25.85-15 35.37-3.87 4.54 5.29 6.16 11.94 4.65 18.99-1.44 6.71-4.52 10.68-11.03 14.23-6.86 3.73-14.67 3.44-21.05-.79l-4.21-2.78-9.13 6.27c-5.03 3.45-13.48 9.35-18.78 13.11l-9.64 6.83.98 4.24c1.44 6.24.46 16.52-2.05 21.44-1.18 2.32-2.15 4.45-2.15 4.74s10.01 7.24 22.25 15.44c12.24 8.21 24.57 16.57 27.41 18.59l5.15 3.67 4.21-2.78c11.01-7.29 29.42-2.33 35.44 9.55 4.16 8.2 3.08 18.11-2.67 24.67-9.66 11-26.14 11.16-36.94.36-5.42-5.42-6.4-8.73-5.59-18.82l.54-6.63-12.65-8.93c-6.96-4.91-19.47-13.56-27.8-19.24l-15.15-10.31-5.85 2.69c-4.82 2.21-7.51 2.72-15.35 2.94l-9.5.26-2.36 3.7c-1.3 2.03-4.48 7.57-7.06 12.29-2.58 4.73-5.33 9.6-6.11 10.82-1.28 2.01-1.17 2.47 1.21 5 7.12 7.57 8.62 15.21 4.76 24.2-2.27 5.28-5.87 8.44-12.1 10.64-4.63 1.63-6.7 1.67-12.2.21M778 421c-.79-.49-1.67-.67-1.94-.39-.28.27.15.9.94 1.39s1.67.67 1.94.39c.28-.27-.15-.9-.94-1.39m-77-65.2c0-1.17-7.79 5.25-7.92 6.53-.04.46 1.72-.59 3.92-2.33s4-3.63 4-4.2m-13-3.3c1.29-1.38 2.12-2.5 1.85-2.5-.28 0-1.56 1.12-2.85 2.5s-2.12 2.5-1.85 2.5c.28 0 1.56-1.12 2.85-2.5m0-10.81c0-.44-2.25 1.09-5 3.41s-5 4.62-5 5.11c0 .5 2.25-1.04 5-3.4 2.75-2.37 5-4.67 5-5.12m-8-4.81c0-1.38-.38-1.12-4.05 2.78l-3.45 3.66 3.75-2.78c2.06-1.53 3.75-3.17 3.75-3.66m94.68-47.07c-.32-.8-.55-.56-.6.61-.04 1.05.19 1.64.52 1.31.34-.33.37-1.2.08-1.92m162.54 138.63c-2.95-2.06-2.88-5.96.15-7.94 5.37-3.53 11.56 3.43 7.06 7.93-1.99 1.99-4.38 2-7.21.01m-40-17c-2.93-2.05-2.82-5 .28-7.03 2.32-1.52 2.68-1.52 5 0 3.03 1.99 3.34 6.07.57 7.55-2.57 1.38-3.23 1.32-5.85-.52M861 345.71c-.28-.25-9.72-.74-21-1.07-27.11-.82-36.89-2.47-35.7-6.04.26-.79 26.82-1.13 93.78-1.2 51.38-.05 99.84-.5 107.69-1 15.45-.97 16.23-.92 16.23 1.15 0 2.41-4.5 3.77-16.5 5.01-2.2.23-8.5.93-14 1.56-9.68 1.1-129.45 2.57-130.5 1.59m102.44-31.13c-1.88-1.38-1.95-3.4-2.21-67.14-.24-57.88-.09-66.01 1.27-68.08 1.5-2.29 1.95-2.36 15.49-2.36 12.92 0 14.02.15 15.01 2 1.65 3.07.69 133.46-.99 135.49-1.76 2.12-25.69 2.2-28.57.09M980 309c0-.55-1.46-.96-3.25-.9-3.08.09-3.12.14-.75.9 3.53 1.13 4 1.13 4 0m-11-1.5c0-.83-.45-1.5-1-1.5s-1 .67-1 1.5.45 1.5 1 1.5 1-.67 1-1.5m18.68-1.69c-.32-.8-.55-.56-.6.61-.04 1.05.19 1.64.52 1.31.34-.33.37-1.2.08-1.92m-174.21 7.69c-1.56-1.25-3.18-53.95-1.68-54.87.52-.32 6.61-.89 13.52-1.26 10.83-.58 12.94-.44 15.14 1l2.55 1.68v26.41c0 20.04-.3 26.62-1.25 27.23-1.8 1.17-26.79 1-28.28-.19m5.03-49.5c.34-.55.14-1-.44-1s-1.06.45-1.06 1 .2 1 .44 1 .72-.45 1.06-1m54.35 50.25c-9.39-.23-12.79-.65-13.17-1.64-.83-2.16-1.12-71.09-.31-72.41.53-.84 4.98-1.2 15.07-1.2 11.66 0 14.55.29 15.59 1.54.96 1.15 1.4 10.07 1.76 35.81.52 36.57.27 38.86-4.08 38.43-1.21-.12-7.9-.35-14.86-.53m7.86-32.49c-.24-1.24-.45-.46-.46 1.74s.19 3.22.44 2.26c.25-.95.26-2.75.02-4m-13.03-15.95c-.32-.8-.55-.56-.6.61-.04 1.05.19 1.64.52 1.31.34-.33.37-1.2.08-1.92M866 246.5c1.02-1.23.95-1.5-.38-1.5-.89 0-1.62.68-1.62 1.5s.17 1.5.38 1.5.94-.68 1.62-1.5m46.26 67.25c-.56-.7-1.27-12.84-1.62-27.75-.35-14.58-.93-36.19-1.29-48.03-.59-19.56-.49-21.68 1.07-23.25 1.46-1.46 3.8-1.72 15.53-1.72 10.9 0 14.06.31 15.02 1.47 1.83 2.2 2.85 96.84 1.06 98.99-1.68 2.03-28.19 2.29-29.77.29m20.42-28.94c-.32-.8-.55-.56-.6.61-.04 1.05.19 1.64.52 1.31.34-.33.37-1.2.08-1.92m3.03-23.06c-.24-1.24-.44-.23-.44 2.25s.2 3.49.44 2.25c.23-1.24.23-3.26 0-4.5M915 259.5c0-.83-.18-1.5-.39-1.5-.22 0-.66.67-.97 1.5-.32.83-.14 1.5.39 1.5s.97-.67.97-1.5m6.21-17.45c.23-1.62.06-2.72-.39-2.44-.8.5-1.2 5.39-.43 5.39.21 0 .58-1.33.82-2.95m-144.71-5.06c-.73-1.16-.46-1.27 9.5-3.53 25.77-5.88 50.6-17.54 72.79-34.19 8.04-6.04 29.21-25.9 29.21-27.4 0-.48-3.15-2.29-7-4.01-5.68-2.54-7-3.55-7-5.39 0-1.24.79-2.58 1.75-2.97 3.08-1.27 29.62-6.76 33.25-6.88 4.01-.14 3.81-1.6 2.08 15.38-2.05 20.09-3.14 21.33-11.49 13.09l-5.18-5.11-3.45 3.64c-6.75 7.1-25.47 22.48-35.31 29.01-11.42 7.59-31.75 17.77-43.31 21.69-8.97 3.05-28.51 7.66-32.53 7.67-1.48.01-2.97-.44-3.31-1m-40.46-13.44c-1.72-2.07-.33-5.44 2.54-6.16 4.25-1.07 7.2 3.43 4.22 6.41-1.64 1.64-5.3 1.51-6.76-.25m28.34-2.99c-.93-2.45.05-5.02 2.07-5.41 2.64-.51 4.78 2.56 3.48 4.99-1.18 2.2-4.76 2.47-5.55.42m27.77-15.45c-2.27-1.43-.92-4.58 2.11-4.93 3.18-.36 4.67 2 2.73 4.33-1.39 1.68-2.86 1.86-4.84.6"/></svg>