<svg xmlns="http://www.w3.org/2000/svg" viewBox="250.42 152.53 771.58 498.4">
<g>
<path d="M 459.38 650.23 C457.03,648.68 457.00,645.34 459.29,640.94 C463.34,633.15 478.01,606.85 484.16,596.34 C487.44,590.75 491.60,582.65 493.42,578.34 C501.88,558.28 512.52,539.53 518.65,533.86 C524.01,528.89 532.68,524.14 542.81,520.62 C560.58,514.43 568.48,509.79 571.66,503.67 C572.96,501.17 572.95,500.58 571.60,498.51 C569.63,495.50 563.89,493.62 559.18,494.45 C557.16,494.81 551.32,496.47 546.22,498.14 C537.46,501.01 536.79,501.10 534.47,499.57 C530.89,497.22 531.20,493.46 535.17,491.04 C538.07,489.28 548.38,485.79 563.32,481.52 C571.80,479.09 574.68,475.68 571.69,471.59 C568.69,467.49 554.30,469.24 542.80,475.10 C535.77,478.69 529.43,477.03 530.17,471.81 C530.60,468.81 540.50,463.82 556.20,458.70 C570.98,453.88 575.09,450.07 569.47,446.39 C565.23,443.61 555.55,445.00 541.00,450.49 C526.55,455.95 523.73,455.89 523.18,450.10 C522.92,447.42 523.52,446.04 526.18,443.24 C531.63,437.50 543.72,428.22 551.88,423.51 C556.09,421.08 560.86,417.71 562.47,416.03 L 565.41 412.96 L 563.18 410.73 C561.32,408.87 559.89,408.51 554.62,408.57 C549.50,408.63 546.82,409.34 540.64,412.27 C520.32,421.92 506.09,437.10 484.13,472.50 C460.37,510.83 455.59,517.79 437.18,540.84 C429.33,550.68 403.26,576.87 397.52,580.69 C391.75,584.53 386.66,585.10 385.04,582.07 C383.61,579.39 384.54,577.59 388.93,574.55 C396.51,569.30 427.90,535.21 440.97,518.04 C447.55,509.39 461.15,489.13 465.48,481.50 C470.29,473.03 487.81,447.42 495.08,438.22 C498.87,433.43 501.98,429.22 501.98,428.87 C501.99,428.52 497.61,426.83 492.25,425.11 C486.89,423.38 480.70,420.96 478.50,419.71 C471.70,415.86 472.99,410.00 480.63,410.00 C484.43,410.00 496.01,414.00 504.33,418.18 L 510.16 421.11 L 514.49 417.56 C520.86,412.35 533.91,404.47 541.16,401.46 C544.65,400.02 550.65,398.54 554.50,398.17 L 561.50 397.50 L 561.61 394.00 C561.67,392.08 561.17,388.92 560.50,387.00 C559.83,385.08 558.97,381.25 558.58,378.50 C558.19,375.75 556.73,367.77 555.34,360.77 C552.86,348.22 552.85,347.98 554.66,344.27 C555.93,341.66 558.20,339.52 562.00,337.31 C570.69,332.27 571.34,331.66 570.60,329.31 C570.23,328.15 566.76,324.57 562.88,321.35 C554.41,314.33 546.76,304.52 543.90,297.00 C542.75,293.98 540.97,286.81 539.94,281.07 C537.98,270.11 533.24,258.56 526.89,249.35 C510.17,225.04 471.75,213.15 439.87,222.43 C414.54,229.80 396.00,243.99 386.56,263.23 C380.20,276.16 378.56,283.12 378.56,297.00 C378.56,309.47 380.02,316.35 385.09,327.74 C389.07,336.68 403.51,362.43 408.51,369.51 C414.76,378.35 416.30,383.57 416.32,396.00 C416.35,414.99 410.76,430.02 399.61,440.97 L 393.09 447.37 L 395.80 452.23 C399.62,459.12 407.03,467.16 413.52,471.47 C417.04,473.80 424.25,476.83 433.15,479.72 C447.69,484.44 452.83,487.39 451.70,490.34 C450.78,492.75 448.51,492.45 433.75,488.01 C410.89,481.13 401.56,474.87 391.78,459.85 C388.97,455.53 386.28,452.00 385.80,452.00 C385.33,452.00 383.26,452.72 381.22,453.59 C373.65,456.84 358.02,462.30 341.00,467.65 C307.45,478.19 298.21,483.97 286.08,502.00 C277.37,514.94 276.19,518.10 272.92,537.18 C271.29,546.71 269.75,555.17 269.50,556.00 C269.26,556.83 268.79,560.20 268.47,563.50 C266.92,579.45 264.89,589.71 262.25,594.96 C259.20,601.01 255.33,604.45 252.69,603.44 C249.91,602.37 249.73,598.85 251.90,588.38 C253.02,582.95 254.43,574.00 255.02,568.50 C255.62,563.00 256.74,555.04 257.52,550.82 C258.30,546.59 259.66,537.17 260.55,529.87 C262.45,514.32 263.39,511.63 271.26,499.00 C279.85,485.21 283.76,480.40 290.50,475.34 C299.42,468.65 316.88,460.55 328.00,457.96 C362.55,449.89 368.06,448.02 379.89,440.37 C391.90,432.60 395.44,428.90 398.97,420.42 C403.38,409.83 405.00,402.58 405.00,393.45 C405.00,382.58 403.24,377.35 396.68,368.73 C389.46,359.25 381.08,345.33 377.04,336.11 C368.22,315.96 366.08,293.13 371.36,275.50 C372.85,270.55 376.39,261.77 379.23,256.00 C383.59,247.13 385.65,244.26 392.45,237.50 C402.43,227.59 411.85,221.13 423.86,215.95 C436.88,210.34 449.36,207.38 463.00,206.65 C475.02,206.01 475.67,206.11 494.03,211.32 C507.55,215.15 515.19,219.90 516.55,225.34 C516.90,226.72 521.09,231.82 525.87,236.68 C537.61,248.59 544.30,261.46 547.92,279.06 C550.52,291.73 559.51,306.00 570.89,315.53 C579.41,322.67 581.00,325.09 581.00,330.97 C581.00,335.98 577.88,339.72 570.67,343.37 C562.18,347.67 561.50,348.75 563.32,355.18 C566.27,365.62 571.13,392.28 570.87,396.55 C570.70,399.40 571.15,401.53 572.17,402.70 C574.88,405.80 576.00,408.73 576.00,412.68 C575.99,419.61 571.52,424.59 559.50,431.05 C556.20,432.82 553.19,434.55 552.80,434.88 C552.42,435.22 556.26,435.50 561.33,435.50 C576.14,435.50 582.00,439.33 582.00,449.00 C582.00,453.33 580.19,457.76 577.53,459.98 C576.08,461.18 576.19,461.59 578.67,464.17 C580.63,466.22 582.27,466.99 584.45,466.87 C587.97,466.68 618.53,482.36 627.22,488.81 C638.01,496.82 649.10,509.69 657.98,524.50 C668.24,541.61 672.64,551.31 678.38,569.50 C685.28,591.34 687.31,601.41 686.07,607.78 C684.84,614.12 683.70,616.39 680.77,618.45 C675.23,622.33 670.00,618.98 670.00,611.54 C670.00,597.83 660.81,558.50 654.48,545.14 C646.22,527.70 627.34,504.32 613.03,493.79 C609.61,491.27 585.02,478.00 583.78,478.00 C583.48,478.00 582.68,479.37 581.99,481.03 C581.29,482.70 579.61,484.95 578.25,486.02 L 575.77 487.97 L 578.78 491.40 C584.57,497.99 583.88,508.12 577.19,514.80 C572.50,519.49 562.41,524.75 549.00,529.50 C536.29,534.00 533.25,535.77 528.01,541.73 C524.20,546.06 506.64,579.46 499.13,596.67 C497.41,600.61 494.04,607.13 491.64,611.17 C483.33,625.12 473.74,640.52 470.80,644.63 C467.00,649.92 462.37,652.20 459.38,650.23 ZM 764.69 481.35 C763.27,479.94 764.07,478.00 766.07,478.00 C767.47,478.00 768.04,478.54 767.82,479.67 C767.47,481.51 765.76,482.43 764.69,481.35 ZM 817.46 480.94 C816.33,479.11 817.92,475.16 820.05,474.48 C823.86,473.27 826.64,477.96 823.80,480.80 C822.32,482.28 818.35,482.37 817.46,480.94 ZM 886.33 467.38 C884.80,465.04 884.77,464.49 886.09,462.13 C887.88,458.93 892.91,458.05 895.37,460.52 C897.52,462.67 897.42,464.19 894.93,467.37 C892.22,470.80 888.58,470.81 886.33,467.38 ZM 852.38 450.56 C851.15,447.35 852.44,445.50 855.90,445.50 C859.98,445.50 862.09,447.99 860.07,450.42 C858.43,452.40 853.13,452.50 852.38,450.56 ZM 642.64 445.77 C637.43,444.39 630.51,437.60 629.11,432.50 C624.92,417.24 632.83,406.71 649.93,404.78 C651.90,404.55 654.01,401.74 661.01,390.00 L 669.65 375.50 L 664.68 371.00 C661.95,368.52 659.42,366.38 659.05,366.23 C658.40,365.97 651.98,369.96 625.11,387.34 C612.09,395.76 608.00,397.49 608.00,394.59 C608.00,392.46 611.70,389.71 634.91,374.53 L 656.20 360.62 L 655.61 357.06 C655.29,355.10 655.02,351.89 655.01,349.91 L 655.00 346.32 L 640.25 340.48 C616.68,331.14 613.00,329.34 613.00,327.16 C613.00,326.06 613.88,325.00 615.03,324.70 C617.68,324.01 629.51,327.39 638.98,331.55 C643.12,333.36 648.80,335.75 651.61,336.85 L 656.71 338.86 L 658.79 335.18 C661.58,330.25 667.49,324.73 673.07,321.86 L 677.64 319.50 L 674.47 303.50 C672.73,294.70 670.72,284.12 670.00,280.00 L 668.69 272.50 L 663.60 272.29 C655.84,271.96 646.33,266.67 642.54,260.56 C636.05,250.09 638.75,236.10 648.73,228.48 C654.20,224.30 659.67,222.58 666.75,222.81 C676.76,223.13 684.07,228.12 688.09,237.38 C692.81,248.29 689.88,259.58 680.41,267.00 C676.63,269.95 676.03,270.89 676.57,273.00 C676.92,274.38 678.95,284.05 681.10,294.50 C683.24,304.95 685.20,314.42 685.46,315.54 C685.85,317.21 687.26,317.81 693.19,318.83 C701.13,320.19 707.74,323.50 710.75,327.63 L 712.68 330.28 L 730.59 317.52 C746.63,306.08 748.47,304.48 748.24,302.12 C747.30,292.70 747.65,289.36 750.04,285.04 C757.20,272.09 775.89,270.04 785.41,281.17 C789.95,286.46 791.57,293.11 790.06,300.16 C788.62,306.87 785.54,310.84 779.03,314.39 C772.17,318.12 764.36,317.83 757.98,313.60 L 753.77 310.82 L 744.64 317.09 C739.61,320.54 731.16,326.44 725.86,330.20 L 716.22 337.03 L 717.20 341.27 C718.64,347.51 717.66,357.79 715.15,362.71 C713.97,365.03 713.00,367.16 713.00,367.45 C713.00,367.74 723.01,374.69 735.25,382.89 C747.49,391.10 759.82,399.46 762.66,401.48 L 767.81 405.15 L 772.02 402.37 C783.03,395.08 801.44,400.04 807.46,411.92 C811.62,420.12 810.54,430.03 804.79,436.59 C795.13,447.59 778.65,447.75 767.85,436.95 C762.43,431.53 761.45,428.22 762.26,418.13 L 762.80 411.50 L 750.15 402.57 C743.19,397.66 730.68,389.01 722.35,383.33 L 707.20 373.02 L 701.35 375.71 C696.53,377.92 693.84,378.43 686.00,378.65 L 676.50 378.91 L 674.14 382.61 C672.84,384.64 669.66,390.18 667.08,394.90 C664.50,399.63 661.75,404.50 660.97,405.72 C659.69,407.73 659.80,408.19 662.18,410.72 C669.30,418.29 670.80,425.93 666.94,434.92 C664.67,440.20 661.07,443.36 654.84,445.56 C650.21,447.19 648.14,447.23 642.64,445.77 ZM 778.00 421.00 C777.21,420.51 776.33,420.33 776.06,420.61 C775.78,420.88 776.21,421.51 777.00,422.00 C777.79,422.49 778.67,422.67 778.94,422.39 C779.22,422.12 778.79,421.49 778.00,421.00 ZM 701.00 355.80 C701.00,354.63 693.21,361.05 693.08,362.33 C693.04,362.79 694.80,361.74 697.00,360.00 C699.20,358.26 701.00,356.37 701.00,355.80 ZM 688.00 352.50 C689.29,351.12 690.12,350.00 689.85,350.00 C689.57,350.00 688.29,351.12 687.00,352.50 C685.71,353.88 684.88,355.00 685.15,355.00 C685.43,355.00 686.71,353.88 688.00,352.50 ZM 688.00 341.69 C688.00,341.25 685.75,342.78 683.00,345.10 C680.25,347.42 678.00,349.72 678.00,350.21 C678.00,350.71 680.25,349.17 683.00,346.81 C685.75,344.44 688.00,342.14 688.00,341.69 ZM 680.00 336.88 C680.00,335.50 679.62,335.76 675.95,339.66 L 672.50 343.32 L 676.25 340.54 C678.31,339.01 680.00,337.37 680.00,336.88 ZM 774.68 289.81 C774.36,289.01 774.13,289.25 774.08,290.42 C774.04,291.47 774.27,292.06 774.60,291.73 C774.94,291.40 774.97,290.53 774.68,289.81 ZM 937.22 428.44 C934.27,426.38 934.34,422.48 937.37,420.50 C942.74,416.97 948.93,423.93 944.43,428.43 C942.44,430.42 940.05,430.43 937.22,428.44 ZM 897.22 411.44 C894.29,409.39 894.40,406.44 897.50,404.41 C899.82,402.89 900.18,402.89 902.50,404.41 C905.53,406.40 905.84,410.48 903.07,411.96 C900.50,413.34 899.84,413.28 897.22,411.44 ZM 861.00 345.71 C860.72,345.46 851.28,344.97 840.00,344.64 C812.89,343.82 803.11,342.17 804.30,338.60 C804.56,337.81 831.12,337.47 898.08,337.40 C949.46,337.35 997.92,336.90 1005.77,336.40 C1021.22,335.43 1022.00,335.48 1022.00,337.55 C1022.00,339.96 1017.50,341.32 1005.50,342.56 C1003.30,342.79 997.00,343.49 991.50,344.12 C981.82,345.22 862.05,346.69 861.00,345.71 ZM 963.44 314.58 C961.56,313.20 961.49,311.18 961.23,247.44 C960.99,189.56 961.14,181.43 962.50,179.36 C964.00,177.07 964.45,177.00 977.99,177.00 C990.91,177.00 992.01,177.15 993.00,179.00 C994.65,182.07 993.69,312.46 992.01,314.49 C990.25,316.61 966.32,316.69 963.44,314.58 ZM 980.00 309.00 C980.00,308.45 978.54,308.04 976.75,308.10 C973.67,308.19 973.63,308.24 976.00,309.00 C979.53,310.13 980.00,310.13 980.00,309.00 ZM 969.00 307.50 C969.00,306.67 968.55,306.00 968.00,306.00 C967.45,306.00 967.00,306.67 967.00,307.50 C967.00,308.33 967.45,309.00 968.00,309.00 C968.55,309.00 969.00,308.33 969.00,307.50 ZM 987.68 305.81 C987.36,305.01 987.13,305.25 987.08,306.42 C987.04,307.47 987.27,308.06 987.60,307.73 C987.94,307.40 987.97,306.53 987.68,305.81 ZM 813.47 313.50 C811.91,312.25 810.29,259.55 811.79,258.63 C812.31,258.31 818.40,257.74 825.31,257.37 C836.14,256.79 838.25,256.93 840.45,258.37 L 843.00 260.05 L 843.00 286.46 C843.00,306.50 842.70,313.08 841.75,313.69 C839.95,314.86 814.96,314.69 813.47,313.50 ZM 818.50 264.00 C818.84,263.45 818.64,263.00 818.06,263.00 C817.48,263.00 817.00,263.45 817.00,264.00 C817.00,264.55 817.20,265.00 817.44,265.00 C817.68,265.00 818.16,264.55 818.50,264.00 ZM 872.85 314.25 C863.46,314.02 860.06,313.60 859.68,312.61 C858.85,310.45 858.56,241.52 859.37,240.20 C859.90,239.36 864.35,239.00 874.44,239.00 C886.10,239.00 888.99,239.29 890.03,240.54 C890.99,241.69 891.43,250.61 891.79,276.35 C892.31,312.92 892.06,315.21 887.71,314.78 C886.50,314.66 879.81,314.43 872.85,314.25 ZM 880.71 281.76 C880.47,280.52 880.26,281.30 880.25,283.50 C880.24,285.70 880.44,286.72 880.69,285.76 C880.94,284.81 880.95,283.01 880.71,281.76 ZM 867.68 265.81 C867.36,265.01 867.13,265.25 867.08,266.42 C867.04,267.47 867.27,268.06 867.60,267.73 C867.94,267.40 867.97,266.53 867.68,265.81 ZM 866.00 246.50 C867.02,245.27 866.95,245.00 865.62,245.00 C864.73,245.00 864.00,245.68 864.00,246.50 C864.00,247.32 864.17,248.00 864.38,248.00 C864.59,248.00 865.32,247.32 866.00,246.50 ZM 912.26 313.75 C911.70,313.05 910.99,300.91 910.64,286.00 C910.29,271.42 909.71,249.81 909.35,237.97 C908.76,218.41 908.86,216.29 910.42,214.72 C911.88,213.26 914.22,213.00 925.95,213.00 C936.85,213.00 940.01,213.31 940.97,214.47 C942.80,216.67 943.82,311.31 942.03,313.46 C940.35,315.49 913.84,315.75 912.26,313.75 ZM 932.68 284.81 C932.36,284.01 932.13,284.25 932.08,285.42 C932.04,286.47 932.27,287.06 932.60,286.73 C932.94,286.40 932.97,285.53 932.68,284.81 ZM 935.71 261.75 C935.47,260.51 935.27,261.52 935.27,264.00 C935.27,266.48 935.47,267.49 935.71,266.25 C935.94,265.01 935.94,262.99 935.71,261.75 ZM 915.00 259.50 C915.00,258.67 914.82,258.00 914.61,258.00 C914.39,258.00 913.95,258.67 913.64,259.50 C913.32,260.33 913.50,261.00 914.03,261.00 C914.56,261.00 915.00,260.33 915.00,259.50 ZM 921.21 242.05 C921.44,240.43 921.27,239.33 920.82,239.61 C920.02,240.11 919.62,245.00 920.39,245.00 C920.60,245.00 920.97,243.67 921.21,242.05 ZM 776.50 236.99 C775.77,235.83 776.04,235.72 786.00,233.46 C811.77,227.58 836.60,215.92 858.79,199.27 C866.83,193.23 888.00,173.37 888.00,171.87 C888.00,171.39 884.85,169.58 881.00,167.86 C875.32,165.32 874.00,164.31 874.00,162.47 C874.00,161.23 874.79,159.89 875.75,159.50 C878.83,158.23 905.37,152.74 909.00,152.62 C913.01,152.48 912.81,151.02 911.08,168.00 C909.03,188.09 907.94,189.33 899.59,181.09 L 894.41 175.98 L 890.96 179.62 C884.21,186.72 865.49,202.10 855.65,208.63 C844.23,216.22 823.90,226.40 812.34,230.32 C803.37,233.37 783.83,237.98 779.81,237.99 C778.33,238.00 776.84,237.55 776.50,236.99 ZM 736.04 223.55 C734.32,221.48 735.71,218.11 738.58,217.39 C742.83,216.32 745.78,220.82 742.80,223.80 C741.16,225.44 737.50,225.31 736.04,223.55 ZM 764.38 220.56 C763.45,218.11 764.43,215.54 766.45,215.15 C769.09,214.64 771.23,217.71 769.93,220.14 C768.75,222.34 765.17,222.61 764.38,220.56 ZM 792.15 205.11 C789.88,203.68 791.23,200.53 794.26,200.18 C797.44,199.82 798.93,202.18 796.99,204.51 C795.60,206.19 794.13,206.37 792.15,205.11 Z" fill="#e6edf3"/>
</g>
</svg>